<?xml version="1.0" standalone="no"?>
<!DOCTYPE svg PUBLIC "-//W3C//DTD SVG 20010904//EN"
 "http://www.w3.org/TR/2001/REC-SVG-20010904/DTD/svg10.dtd">
<svg version="1.0" xmlns="http://www.w3.org/2000/svg"
 width="24.000000pt" height="24.000000pt" viewBox="0 0 24.000000 24.000000"
 preserveAspectRatio="xMidYMid meet">

<g transform="translate(0.000000,24.000000) scale(0.100000,-0.100000)"
fill="#000000" stroke="none">
<path d="M91 183 c-9 -19 -9 -29 -2 -31 6 -2 11 -21 11 -43 0 -21 5 -39 10
-39 6 0 10 18 10 39 0 22 5 41 11 43 11 4 -8 58 -21 58 -4 0 -12 -12 -19 -27z"/>
<path d="M55 188 c-30 -16 -31 -18 -15 -28 22 -14 26 -13 38 15 13 27 7 30
-23 13z"/>
<path d="M141 178 c16 -30 14 -29 33 -22 23 9 20 19 -9 32 -35 16 -37 15 -24
-10z"/>
<path d="M161 85 c-29 -17 -58 -25 -92 -25 -54 0 -57 -3 -32 -28 12 -12 18
-13 21 -4 5 17 119 17 124 0 4 -10 9 -9 20 3 12 11 14 25 10 47 l-7 32 -44
-25z"/>
</g>
</svg>
